<svg xmlns="http://www.w3.org/2000/svg" xmlns:xlink="http://www.w3.org/1999/xlink" width="225" zoomAndPan="magnify" viewBox="0 0 168.75 168.749997" height="225" preserveAspectRatio="xMidYMid meet" version="1.2"><g id="f716ee28f1"><path style=" stroke:none;fill-rule:nonzero;fill:#0074bd;fill-opacity:1;" d="M 64.898438 124.582031 C 64.898438 124.582031 59.261719 127.863281 68.910156 128.96875 C 80.601562 130.304688 86.578125 130.113281 99.457031 127.679688 C 99.457031 127.679688 102.851562 129.800781 107.578125 131.636719 C 78.695312 144.011719 42.214844 130.921875 64.898438 124.582031 Z M 61.367188 108.433594 C 61.367188 108.433594 55.046875 113.113281 64.703125 114.113281 C 77.191406 115.402344 87.050781 115.507812 104.121094 112.222656 C 104.121094 112.222656 106.476562 114.613281 110.1875 115.921875 C 75.273438 126.132812 36.386719 116.726562 61.367188 108.433594 Z M 61.367188 108.433594 "/><path style=" stroke:none;fill-rule:nonzero;fill:#ea2d2e;fill-opacity:1;" d="M 91.117188 81.035156 C 98.238281 89.230469 89.25 96.597656 89.25 96.597656 C 89.25 96.597656 107.320312 87.273438 99.023438 75.589844 C 91.269531 64.699219 85.328125 59.289062 117.5 40.628906 C 117.5 40.632812 67 53.242188 91.117188 81.035156 Z M 91.117188 81.035156 "/><path style=" stroke:none;fill-rule:nonzero;fill:#0074bd;fill-opacity:1;" d="M 129.316406 136.53125 C 129.316406 136.53125 133.484375 139.96875 124.71875 142.628906 C 108.054688 147.675781 55.339844 149.199219 40.699219 142.832031 C 35.4375 140.539062 45.304688 137.363281 48.410156 136.695312 C 51.648438 135.992188 53.496094 136.121094 53.496094 136.121094 C 47.640625 132 15.660156 144.214844 37.253906 147.722656 C 96.132812 157.265625 144.585938 143.421875 129.316406 136.53125 Z M 67.609375 91.699219 C 67.609375 91.699219 40.796875 98.066406 58.117188 100.382812 C 65.429688 101.359375 80 101.136719 93.585938 99.996094 C 104.683594 99.0625 115.816406 97.074219 115.816406 97.074219 C 115.816406 97.074219 111.910156 98.75 109.078125 100.679688 C 81.84375 107.84375 29.25 104.507812 44.394531 97.183594 C 57.195312 90.992188 67.609375 91.699219 67.609375 91.699219 Z M 115.707031 118.582031 C 143.386719 104.203125 130.585938 90.382812 121.652344 92.242188 C 119.46875 92.699219 118.492188 93.09375 118.492188 93.09375 C 118.492188 93.09375 119.304688 91.820312 120.855469 91.269531 C 138.527344 85.0625 152.113281 109.59375 115.152344 119.3125 C 115.152344 119.308594 115.578125 118.925781 115.707031 118.582031 Z M 115.707031 118.582031 "/><path style=" stroke:none;fill-rule:nonzero;fill:#ea2d2e;fill-opacity:1;" d="M 99.023438 10.496094 C 99.023438 10.496094 114.347656 25.832031 84.480469 49.40625 C 60.53125 68.324219 79.019531 79.105469 84.472656 91.433594 C 70.492188 78.816406 60.234375 67.710938 67.113281 57.378906 C 77.21875 42.210938 105.203125 34.851562 99.023438 10.496094 Z M 99.023438 10.496094 "/><path style=" stroke:none;fill-rule:nonzero;fill:#0074bd;fill-opacity:1;" d="M 70.332031 157.558594 C 96.894531 159.257812 137.695312 156.613281 138.660156 144.042969 C 138.660156 144.042969 136.804688 148.808594 116.707031 152.589844 C 94.03125 156.859375 66.058594 156.359375 49.472656 153.621094 C 49.472656 153.621094 52.871094 156.4375 70.332031 157.558594 Z M 70.332031 157.558594 "/></g></svg>